<?xml version="1.0" standalone="no"?>
<!DOCTYPE svg PUBLIC "-//W3C//DTD SVG 1.1//EN" "http://www.w3.org/Graphics/SVG/1.1/DTD/svg11.dtd" >
<svg xmlns="http://www.w3.org/2000/svg" xmlns:xlink="http://www.w3.org/1999/xlink" version="1.1">
<metadata>
Created by FontForge 20161116 at Wed Feb 24 04:56:49 2010
 By Jimmy Warting
Copyright (c) 1991 Adobe Systems Incorporated.  All Rights Reserved.Berthold Akzidenz Grotesk is a registered trademark of H. Berthold AG.
</metadata>
<defs>
<font id="AkzidenzGroteskBE-LightEx" horiz-adv-x="667" >
  <font-face 
    font-family="Berthold Akzidenz Grotesk BE"
    font-weight="200"
    font-stretch="normal"
    units-per-em="1000"
    panose-1="2 0 3 3 0 0 0 0 0 0"
    ascent="800"
    descent="-200"
    x-height="494"
    cap-height="706"
    bbox="-165 -258 1529 958"
    underline-thickness="50"
    underline-position="-100"
    stemh="55"
    stemv="65"
    unicode-range="U+0020-FFFD"
  />
<missing-glyph horiz-adv-x="375" 
 />
    <glyph glyph-name=".notdef" unicode="&#xfffd;" horiz-adv-x="375" 
 />
    <glyph glyph-name="space" unicode=" " horiz-adv-x="375" 
 />
    <glyph glyph-name="exclam" unicode="!" horiz-adv-x="313" 
d="M198 200h-46l-12 223v283h71v-304zM214 99v-99h-77v99h77z" />
    <glyph glyph-name="quotedbl" unicode="&#x22;" horiz-adv-x="396" 
d="M336 700l-36 -255h-19l-32 242c-1 8 -1 12 -1 17c0 32 24 45 46 45c6 0 44 0 42 -49zM148 700l-35 -255h-19l-33 242c-1 8 -1 12 -1 17c0 32 25 45 46 45c6 0 45 0 42 -49z" />
    <glyph glyph-name="numbersign" unicode="#" 
d="M430 259l-37 -259h-61l38 259h-101l-38 -259h-58l36 259h-168v54h176l13 97h-167v57h174l32 241h63l-35 -241h101l32 241h59l-33 -241h168v-57h-175l-13 -97h168v-54h-174zM276 313h101l13 97h-100z" />
    <glyph glyph-name="dollar" unicode="$" horiz-adv-x="812" 
d="M382 724v63h60v-63c49 -4 105 -9 173 -40c70 -32 101 -69 128 -99l-64 -34c-18 23 -43 54 -101 80c-55 24 -104 28 -136 31v-257c89 -11 189 -23 248 -63c23 -15 73 -58 73 -132c0 -58 -27 -109 -71 -148c-80 -69 -186 -75 -250 -79v-67h-60v67c-64 5 -143 10 -218 49
c-79 42 -107 97 -132 145l74 28c46 -122 152 -154 276 -160v299c-138 18 -195 26 -242 63c-35 28 -54 68 -54 112c0 53 28 120 110 162c65 34 137 39 186 43zM382 414v248c-29 -2 -90 -5 -143 -31c-48 -24 -81 -63 -81 -106c0 -87 105 -99 224 -111zM442 336v-291
c46 3 101 7 160 38c52 26 88 66 88 123c0 94 -102 110 -248 130z" />
    <glyph glyph-name="percent" unicode="%" horiz-adv-x="1083" 
d="M833 439c125 5 217 -95 217 -224c0 -120 -85 -221 -211 -221c-115 0 -207 92 -207 224c0 128 88 216 201 221zM313 0l399 688h53l-399 -688h-53zM834 394c-99 -3 -153 -77 -153 -177c0 -133 92 -179 158 -179c79 0 159 57 159 175c0 114 -67 185 -164 181zM231 692
c126 5 217 -94 217 -223c0 -121 -85 -222 -211 -222c-114 0 -207 91 -207 224c0 128 89 216 201 221zM233 648c-99 -3 -153 -78 -153 -178c0 -132 91 -179 158 -179c78 0 159 58 159 176c0 114 -68 184 -164 181z" />
    <glyph glyph-name="ampersand" unicode="&#x26;" horiz-adv-x="771" 
d="M755 60v-59c-75 2 -115 23 -198 86c-23 -23 -42 -42 -81 -62c-42 -21 -105 -41 -177 -41c-170 0 -261 104 -261 202c0 128 126 173 220 207c-35 41 -75 89 -75 151c0 60 41 150 179 150c109 0 163 -76 163 -151c0 -109 -98 -149 -164 -175c102 -115 145 -154 196 -199
c47 69 64 120 76 206h65c-24 -141 -54 -188 -95 -243c72 -55 98 -65 152 -72zM322 415c59 23 141 53 141 133c0 46 -37 91 -104 91c-74 0 -108 -47 -108 -93c0 -43 31 -83 71 -131zM299 344c-104 -35 -190 -64 -190 -154c0 -80 74 -147 191 -147c43 0 89 9 133 28
c38 16 56 31 81 52c-79 71 -131 122 -215 221z" />
    <glyph glyph-name="quotesingle" unicode="'" horiz-adv-x="208" 
d="M148 700l-35 -255h-19l-33 242c-1 8 -1 12 -1 17c0 32 25 45 46 45c6 0 45 0 42 -49z" />
    <glyph glyph-name="parenleft" unicode="(" horiz-adv-x="354" 
d="M337 -189l-25 -29c-130 100 -235 266 -235 482c0 285 173 421 235 470l25 -26c-20 -20 -40 -41 -58 -63c-66 -82 -128 -220 -128 -389c0 -91 18 -184 58 -268c17 -36 59 -114 128 -177z" />
    <glyph glyph-name="parenright" unicode=")" horiz-adv-x="354" 
d="M18 705l25 29c131 -101 235 -267 235 -482c0 -285 -173 -421 -235 -469l-25 25c20 21 40 41 58 63c65 82 128 220 128 389c0 250 -134 397 -186 445z" />
    <glyph glyph-name="asterisk" unicode="*" horiz-adv-x="396" 
d="M181 582l-3 124h47l-2 -124l106 50l18 -43l-115 -49l80 -96l-37 -26l-78 99l-69 -103l-38 29l76 99l-116 48l24 42z" />
    <glyph glyph-name="plus" unicode="+" 
d="M364 261v-261h-60v261h-262v60h262v260h60v-260h261v-60h-261z" />
    <glyph glyph-name="comma" unicode="," horiz-adv-x="271" 
d="M98 0v99h74v-119c-1 -30 -4 -88 -72 -95v35c37 5 36 53 35 80h-37z" />
    <glyph glyph-name="hyphen" unicode="-" horiz-adv-x="375" 
d="M51 377h276v-62h-276v62z" />
    <glyph glyph-name="period" unicode="." horiz-adv-x="271" 
d="M96 0v99h77v-99h-77z" />
    <glyph glyph-name="slash" unicode="/" horiz-adv-x="500" 
d="M17 0l399 706h59l-398 -706h-60z" />
    <glyph glyph-name="zero" unicode="0" horiz-adv-x="729" 
d="M362 700c202 2 336 -157 336 -356c0 -139 -70 -249 -156 -303c-42 -26 -109 -52 -182 -52c-176 0 -329 141 -329 355c0 58 15 185 111 272c60 55 138 84 220 84zM359 639c-143 -4 -256 -106 -256 -296c0 -199 132 -292 260 -292c132 0 262 97 262 296
c0 196 -125 295 -266 292z" />
    <glyph glyph-name="one" unicode="1" horiz-adv-x="729" 
d="M165 496v57c25 0 51 0 87 10c89 25 106 85 120 129h45v-692h-68v543c-42 -30 -83 -48 -184 -47z" />
    <glyph glyph-name="two" unicode="2" horiz-adv-x="729" 
d="M670 60v-60h-597v65c206 94 325 152 406 214c27 21 111 86 111 189c0 89 -71 174 -215 174c-54 0 -113 -14 -155 -43c-71 -49 -76 -116 -79 -163l-68 10c4 37 15 126 94 191c33 27 99 65 211 65c85 0 147 -22 198 -62c32 -25 85 -77 85 -171c0 -129 -98 -203 -146 -238
c-56 -40 -130 -81 -193 -111c-47 -22 -95 -41 -143 -60h491z" />
    <glyph glyph-name="three" unicode="3" horiz-adv-x="729" 
d="M298 331v59h99c52 0 100 1 141 34c21 17 43 43 43 87c0 85 -88 130 -207 130c-71 0 -144 -18 -191 -72c-27 -32 -35 -65 -40 -85l-65 23c13 35 24 66 57 103c17 19 80 90 239 90c49 0 125 -8 183 -41c65 -38 92 -97 92 -150c0 -59 -37 -114 -103 -135
c-7 -2 -15 -3 -22 -5c5 -1 9 -2 14 -3c67 -14 139 -66 139 -162c0 -54 -24 -113 -82 -156c-72 -52 -172 -60 -223 -60c-71 0 -149 16 -208 55c-62 41 -88 93 -107 131l67 21c17 -39 44 -89 111 -121c45 -20 93 -28 142 -28c70 0 136 18 176 49c35 28 55 69 55 109
c0 35 -15 69 -48 93c-44 32 -105 34 -149 34h-113z" />
    <glyph glyph-name="four" unicode="4" horiz-adv-x="729" 
d="M34 244l428 451h74v-451h149v-59h-149v-185h-67v185h-435v59zM469 244v376l-355 -376h355z" />
    <glyph glyph-name="five" unicode="5" horiz-adv-x="729" 
d="M74 315l22 373h529v-56h-470l-14 -234c21 21 43 42 87 61c47 19 97 26 148 26c184 0 297 -109 297 -243c0 -132 -112 -253 -313 -253c-97 0 -180 29 -232 70c-23 18 -58 52 -82 114l68 19c7 -20 16 -48 40 -74c52 -57 144 -71 198 -71c142 0 253 80 253 195
c0 109 -99 184 -240 184c-146 0 -208 -83 -229 -111h-62z" />
    <glyph glyph-name="six" unicode="6" horiz-adv-x="729" 
d="M675 548l-63 -29c-24 33 -84 118 -231 118c-40 0 -117 -7 -180 -71c-45 -45 -60 -99 -70 -135c-12 -49 -13 -73 -14 -102c14 34 41 62 73 82c60 38 146 47 196 47c74 0 144 -18 193 -46c66 -37 113 -102 113 -180c0 -135 -127 -243 -311 -243c-84 0 -192 26 -260 111
c-43 53 -68 131 -68 219c0 22 2 45 4 67c7 55 23 121 63 181c69 102 179 132 267 132c81 0 151 -25 199 -57c40 -27 65 -60 89 -94zM374 397c-106 -3 -229 -47 -229 -167c0 -54 28 -105 72 -137c39 -27 97 -42 160 -42c169 0 247 91 247 177c0 43 -20 80 -44 105
c-53 53 -145 65 -206 64z" />
    <glyph glyph-name="seven" unicode="7" horiz-adv-x="729" 
d="M338 0h-76c1 38 3 91 33 184c72 226 211 372 280 444h-503v60h602v-50c-122 -89 -274 -297 -322 -515c-12 -56 -13 -87 -14 -123z" />
    <glyph glyph-name="eight" unicode="8" horiz-adv-x="729" 
d="M497 361c8 -1 17 -3 26 -5c87 -21 156 -84 156 -166c0 -49 -26 -125 -126 -169c-60 -26 -125 -32 -180 -32c-64 0 -122 8 -165 21c-102 32 -159 101 -159 180c0 91 83 156 183 171c-100 15 -152 77 -152 150c0 117 121 189 287 189c189 0 285 -91 285 -187
c0 -21 -4 -121 -139 -149c-6 -1 -11 -2 -16 -3zM355 644c-137 -4 -204 -57 -204 -129c0 -66 55 -90 74 -98c28 -11 83 -25 145 -25c52 0 106 9 144 25c42 18 71 49 71 98c0 93 -110 133 -230 129zM349 327c-152 -5 -231 -58 -231 -136c0 -89 111 -145 249 -145
c128 0 243 47 243 145c0 94 -116 141 -261 136z" />
    <glyph glyph-name="nine" unicode="9" horiz-adv-x="729" 
d="M73 129l62 32c54 -73 133 -111 223 -111c100 0 190 51 232 149c24 55 32 114 33 174c-15 -37 -41 -68 -74 -90c-56 -37 -142 -53 -209 -53c-188 0 -296 103 -296 224c0 129 121 246 318 246c200 0 324 -126 324 -337c0 -302 -200 -373 -333 -373c-79 0 -147 24 -189 51
c-46 29 -70 61 -91 88zM369 638c-147 2 -256 -74 -256 -180c0 -100 85 -166 229 -166c122 0 249 52 249 169c0 41 -16 82 -44 112c-51 54 -125 65 -178 65z" />
    <glyph glyph-name="colon" unicode=":" horiz-adv-x="313" 
d="M138 489h79v-98h-79v98zM138 99h79v-99h-79v99z" />
    <glyph glyph-name="semicolon" unicode=";" horiz-adv-x="313" 
d="M138 489h79v-98h-79v98zM139 0v99h74v-119c-1 -30 -4 -88 -72 -95v35c37 5 36 53 35 80h-37z" />
    <glyph glyph-name="less" unicode="&#x3c;" 
d="M667 61v-64l-667 322v70l667 320v-64l-600 -291z" />
    <glyph glyph-name="equal" unicode="=" 
d="M667 231v-58h-667v58h667zM667 408v-59h-667v59h667z" />
    <glyph glyph-name="greater" unicode="&#x3e;" 
d="M667 319l-667 -322v64l600 293l-600 291v64l667 -320v-70z" />
    <glyph glyph-name="question" unicode="?" horiz-adv-x="708" 
d="M138 483l-58 22c17 50 44 125 126 175c52 31 112 42 171 42c167 0 280 -87 280 -222c0 -68 -27 -121 -64 -154c-33 -29 -76 -45 -119 -58c-96 -28 -97 -28 -99 -91h-62c3 87 8 109 102 136c23 7 46 14 69 22c30 12 107 41 107 141c0 127 -122 167 -214 167
c-45 0 -96 -9 -146 -42c-57 -39 -74 -83 -93 -138zM305 99h75v-99h-75v99z" />
    <glyph glyph-name="at" unicode="@" horiz-adv-x="896" 
d="M790 65l27 -31c-101 -100 -224 -158 -365 -158c-182 0 -383 105 -383 357c0 245 190 479 461 479c180 0 297 -111 297 -287c0 -182 -113 -354 -228 -354c-47 0 -66 29 -72 41c-9 19 -8 38 -8 52c-17 -24 -67 -92 -150 -92c-66 0 -128 49 -128 159c0 149 99 284 209 284
c60 0 97 -36 119 -95l17 72h59l-33 -147c-23 -111 -29 -141 -29 -173c0 -37 16 -52 36 -52c63 0 162 142 162 303c0 169 -118 245 -255 245c-232 0 -411 -208 -411 -434c0 -222 172 -314 336 -314c107 0 190 37 250 74c45 28 68 51 89 71zM548 347c2 79 -45 115 -90 115
c-92 0 -149 -127 -149 -227c0 -59 28 -109 87 -109c33 0 69 20 97 54c53 66 55 163 55 167z" />
    <glyph glyph-name="A" unicode="A" horiz-adv-x="792" 
d="M354 706h76l356 -706h-73l-91 183h-455l-90 -183h-70zM594 239l-202 404l-198 -404h400z" />
    <glyph glyph-name="B" unicode="B" horiz-adv-x="917" 
d="M82 0v706h510c55 0 116 0 168 -44c38 -31 62 -79 62 -133c0 -35 -11 -73 -32 -101c-29 -38 -70 -49 -91 -55c18 -2 34 -4 57 -13c62 -26 102 -90 102 -167c0 -57 -20 -114 -65 -150c-50 -40 -125 -43 -161 -43h-550zM151 649v-250h431c39 0 93 2 132 38
c34 32 36 70 36 87c0 48 -23 85 -52 104c-31 20 -81 21 -105 21h-442zM151 339v-280h479c35 0 88 3 124 41c17 18 34 50 34 92c0 55 -24 88 -40 102c-41 44 -134 45 -171 45h-426z" />
    <glyph glyph-name="C" unicode="C" horiz-adv-x="812" 
d="M746 219l61 -29c-13 -22 -25 -42 -47 -68c-89 -106 -208 -140 -322 -140c-282 0 -397 205 -397 374c0 214 174 372 397 372c77 0 149 -19 208 -51c81 -45 117 -101 143 -143l-59 -33c-12 20 -20 34 -40 58c-60 74 -155 106 -248 106c-190 0 -326 -131 -326 -314
c0 -164 121 -307 326 -307c197 0 275 127 304 175z" />
    <glyph glyph-name="D" unicode="D" horiz-adv-x="854" 
d="M83 0v706h353c64 0 123 -2 188 -34c131 -64 182 -198 182 -321c0 -136 -59 -239 -143 -294c-83 -54 -179 -57 -260 -57h-320zM153 647v-588h225c94 0 197 1 273 69c63 57 83 139 83 219c0 75 -20 148 -62 202c-74 97 -183 98 -235 98h-284z" />
    <glyph glyph-name="E" unicode="E" horiz-adv-x="833" 
d="M83 0v706h676v-59h-607v-247h561v-59h-561v-282h636v-59h-705z" />
    <glyph glyph-name="F" unicode="F" horiz-adv-x="750" 
d="M83 0v707h650v-59h-581v-251h520v-60h-520v-337h-69z" />
    <glyph glyph-name="G" unicode="G" horiz-adv-x="896" 
d="M761 0v145c-9 -17 -27 -49 -66 -81c-40 -33 -128 -84 -253 -84c-236 0 -398 155 -398 370c0 212 156 377 401 377c95 0 194 -26 264 -78c51 -38 77 -78 96 -108l-66 -38c-13 24 -28 50 -60 79c-65 58 -152 82 -239 82c-195 0 -324 -137 -324 -311
c0 -180 129 -310 332 -310c84 0 167 27 229 84c75 68 81 140 84 182h-376v60h437v-369h-61z" />
    <glyph glyph-name="H" unicode="H" horiz-adv-x="896" 
d="M84 706h68v-302h594v302h68v-706h-68v345h-594v-345h-68v706z" />
    <glyph glyph-name="I" unicode="I" horiz-adv-x="229" 
d="M82 0v706h67v-706h-67z" />
    <glyph glyph-name="J" unicode="J" horiz-adv-x="625" 
d="M492 706h66v-425c0 -52 -4 -127 -32 -180c-45 -85 -145 -119 -236 -119c-75 0 -149 19 -205 68c-48 43 -70 101 -78 123l69 26c5 -18 10 -37 24 -60c51 -85 150 -94 195 -94c56 0 98 13 131 37c40 31 50 73 57 107c8 44 9 94 9 156v361z" />
    <glyph glyph-name="K" unicode="K" horiz-adv-x="792" 
d="M150 277l527 429h94l-334 -272l351 -434h-89l-315 391l-234 -190v-201h-67v706h67v-429z" />
    <glyph glyph-name="L" unicode="L" horiz-adv-x="688" 
d="M84 706h69v-647h514v-59h-583v706z" />
    <glyph glyph-name="M" unicode="M" horiz-adv-x="938" 
d="M83 706h89l269 -572c16 -35 20 -46 31 -75l297 647h88v-706h-63v628c-8 -20 -10 -25 -21 -48l-267 -580h-70l-269 576c-11 23 -13 27 -21 52v-628h-63v706z" />
    <glyph glyph-name="N" unicode="N" horiz-adv-x="896" 
d="M751 706h63v-706h-63l-605 616v-616h-63v706h63l605 -619v619z" />
    <glyph glyph-name="O" unicode="O" horiz-adv-x="917" 
d="M461 728c280 -2 415 -192 415 -373c0 -204 -163 -374 -422 -374c-247 0 -412 159 -412 373c0 208 162 374 419 374zM439 667c-226 -10 -323 -169 -323 -316c0 -194 150 -310 344 -310c187 0 339 113 339 318c0 89 -37 190 -124 248c-33 22 -119 65 -236 60z" />
    <glyph glyph-name="P" unicode="P" horiz-adv-x="812" 
d="M83 0v706h464c65 0 140 -2 196 -60c34 -35 51 -84 51 -133c0 -73 -35 -132 -91 -164c-55 -32 -120 -33 -168 -33h-383v-316h-69zM152 647v-273h359c49 0 105 0 148 25c53 31 62 80 62 113c0 18 -3 39 -10 58c-24 58 -76 77 -157 77h-402z" />
    <glyph glyph-name="Q" unicode="Q" horiz-adv-x="917" 
d="M859 -49l-165 91c-50 -27 -114 -62 -232 -62c-290 0 -422 187 -422 374c0 211 169 371 415 371c276 0 419 -183 419 -374c0 -156 -89 -238 -124 -270l139 -76zM447 664c-219 -4 -332 -156 -332 -310c0 -212 165 -314 343 -314c220 0 340 144 340 315
c0 105 -47 196 -127 250c-65 43 -154 60 -224 59z" />
    <glyph glyph-name="R" unicode="R" horiz-adv-x="875" 
d="M83 706h488c48 0 106 0 155 -27c54 -31 89 -94 89 -166c0 -51 -16 -109 -68 -150c-54 -42 -129 -46 -183 -48l284 -315h-95l-279 315h-323v-315h-68v706zM151 648v-273h379c72 0 136 2 177 46c24 26 34 63 34 95c0 46 -21 84 -48 104c-36 28 -81 28 -120 28h-422z" />
    <glyph glyph-name="S" unicode="S" horiz-adv-x="812" 
d="M32 177l74 28c24 -57 62 -123 191 -150c38 -8 78 -11 117 -11c165 0 277 65 277 162c0 91 -89 110 -241 130c-44 5 -88 11 -131 17c-60 9 -106 16 -144 34c-55 26 -88 72 -88 133c0 106 103 205 325 205c135 0 249 -39 332 -139l-64 -35c-22 29 -85 113 -273 113
c-150 0 -248 -58 -248 -141c0 -60 57 -82 101 -91c34 -7 203 -29 242 -35c63 -10 119 -20 158 -37c61 -27 104 -78 104 -150c0 -38 -13 -74 -31 -102c-34 -52 -117 -126 -313 -126c-126 0 -192 18 -248 47c-89 46 -113 96 -140 148z" />
    <glyph glyph-name="T" unicode="T" horiz-adv-x="688" 
d="M-1 647v59h687v-59h-303v-647h-67v647h-317z" />
    <glyph glyph-name="U" unicode="U" horiz-adv-x="875" 
d="M79 280v427h65v-421c-4 -180 108 -240 293 -240c216 0 293 77 293 252v409h64v-419c0 -214 -118 -306 -357 -306c-241 0 -358 94 -358 298z" />
    <glyph glyph-name="V" unicode="V" horiz-adv-x="708" 
d="M368 74l283 632h75l-327 -706h-66l-333 706h76z" />
    <glyph glyph-name="W" unicode="W" horiz-adv-x="1062" 
d="M3 707h72l180 -556c6 -19 15 -46 25 -81c30 98 37 118 64 194l154 443h73l193 -546c11 -32 17 -50 29 -91c14 51 18 65 36 121l163 516h67l-224 -707h-82l-197 567c-12 32 -14 39 -21 70l-24 -73l-194 -564h-80z" />
    <glyph glyph-name="X" unicode="X" horiz-adv-x="729" 
d="M360 410l257 296h84l-299 -344l338 -362h-88l-292 315l-272 -315h-84l313 362l-321 344h87z" />
    <glyph glyph-name="Y" unicode="Y" horiz-adv-x="729" 
d="M371 343l273 363h79l-320 -420v-286h-64v286l-333 420h84z" />
    <glyph glyph-name="Z" unicode="Z" horiz-adv-x="750" 
d="M55 706h695v-62l-653 -585h635v-59h-732v57l659 590h-604v59z" />
    <glyph glyph-name="bracketleft" unicode="[" horiz-adv-x="292" 
d="M82 -216v947h187v-62h-122v-822h122v-63h-187z" />
    <glyph glyph-name="backslash" unicode="\" horiz-adv-x="500" 
d="M475 0h-59l-399 706h60z" />
    <glyph glyph-name="bracketright" unicode="]" horiz-adv-x="292" 
d="M23 669v62h187v-947h-187v63h122v822h-122z" />
    <glyph glyph-name="asciicircum" unicode="^" horiz-adv-x="729" 
d="M399 706l174 -356h-76l-131 273l-134 -273h-76l180 356h63z" />
    <glyph glyph-name="underscore" unicode="_" horiz-adv-x="500" 
d="M510 -75v-50h-520v50h520z" />
    <glyph glyph-name="grave" unicode="`" horiz-adv-x="375" 
d="M95 699h110l75 -145h-43z" />
    <glyph glyph-name="a" unicode="a" 
d="M667 51v-50c-20 -2 -39 -4 -60 -4c-56 0 -74 23 -82 76c-39 -29 -114 -85 -263 -85c-91 0 -129 20 -144 28c-45 26 -77 73 -77 132c0 54 27 97 60 121c71 51 230 53 423 55c0 59 -1 124 -204 124c-157 0 -184 -42 -204 -101l-69 3c4 18 11 41 26 64c53 81 150 94 244 94
c63 0 148 -7 202 -38c63 -36 66 -107 66 -135v-211c0 -54 11 -77 82 -73zM525 268c-150 0 -312 -2 -371 -46c-30 -21 -42 -49 -42 -75c0 -91 113 -100 158 -100c100 0 187 37 223 78c31 36 33 82 32 143z" />
    <glyph glyph-name="b" unicode="b" horiz-adv-x="708" 
d="M72 0v706h66v-292c53 69 143 93 231 93c184 0 291 -113 291 -260c0 -167 -139 -258 -297 -258c-101 0 -189 41 -225 88v-77h-66zM344 445c-67 -3 -128 -26 -162 -62c-35 -36 -45 -88 -45 -138c0 -142 95 -198 224 -198c116 0 226 63 226 200c0 120 -99 203 -243 198z" />
    <glyph glyph-name="c" unicode="c" 
d="M582 194l65 -26c-35 -59 -105 -179 -310 -179c-161 0 -297 91 -297 261c0 183 164 264 308 264c60 0 131 -15 190 -52c58 -37 84 -79 100 -105l-66 -28c-26 43 -83 128 -225 128c-161 0 -233 -105 -233 -206c0 -124 98 -203 230 -203c67 0 133 23 174 57
c36 30 53 66 64 89z" />
    <glyph glyph-name="d" unicode="d" horiz-adv-x="708" 
d="M569 415v291h66v-706h-66v76c-21 -23 -37 -41 -76 -59c-47 -22 -98 -30 -149 -30c-152 0 -300 87 -300 262c0 173 154 260 303 260c98 0 187 -38 222 -94zM354 43c87 0 150 35 181 77c27 37 34 85 34 132c0 104 -49 141 -65 153c-44 33 -116 52 -166 48
c-95 -4 -218 -57 -220 -205c0 -111 80 -205 236 -205z" />
    <glyph glyph-name="e" unicode="e" 
d="M574 173l53 -37c-19 -26 -50 -69 -105 -102c-56 -33 -124 -46 -178 -46c-170 0 -297 114 -297 271c0 75 31 134 67 171c45 45 124 80 214 80c54 0 149 -13 221 -85c67 -67 74 -139 78 -184h-511c8 -131 119 -196 234 -196c17 0 34 1 49 4c78 14 119 53 138 73
c20 21 28 35 37 51zM118 296h429c-8 33 -23 81 -83 120c-29 19 -71 39 -139 39c-49 0 -111 -10 -162 -67c-35 -39 -42 -76 -45 -92z" />
    <glyph glyph-name="f" unicode="f" horiz-adv-x="354" 
d="M108 495v96c0 22 1 45 10 67c29 66 102 66 128 66c46 0 72 -6 95 -11v-57c-27 6 -44 10 -85 10c-75 0 -82 -46 -82 -90v-81h167v-52h-167v-443h-66v443h-98v52h98z" />
    <glyph glyph-name="g" unicode="g" horiz-adv-x="688" 
d="M75 -36h69c3 -25 8 -58 58 -82c33 -15 87 -23 131 -23c10 0 127 0 178 43c44 38 44 97 43 176c-17 -21 -33 -40 -71 -58c-50 -24 -106 -34 -160 -34c-153 0 -283 89 -283 264c0 159 127 260 296 260c45 0 150 -9 218 -88v72h63v-443c0 -72 -1 -159 -91 -211
c-62 -36 -157 -40 -188 -40c-34 0 -88 4 -132 16c-48 13 -120 43 -131 148zM330 454c-123 -4 -219 -79 -219 -204c0 -120 88 -205 223 -205c82 0 146 31 178 67c32 38 43 88 43 138c0 33 -4 89 -34 130c-32 44 -107 77 -191 74z" />
    <glyph glyph-name="h" unicode="h" horiz-adv-x="708" 
d="M70 707h65v-293c42 67 144 93 235 93c78 0 167 -19 215 -72s49 -135 49 -165v-270h-65v260c-4 52 12 187 -212 187c-70 0 -146 -21 -187 -72c-39 -45 -33 -82 -35 -102v-273h-65v707z" />
    <glyph glyph-name="i" unicode="i" horiz-adv-x="208" 
d="M71 582v95h66v-95h-66zM71 0v495h65v-495h-65z" />
    <glyph glyph-name="j" unicode="j" horiz-adv-x="208" 
d="M72 677h64v-97h-64v97zM72 494h64v-548c-1 -47 -2 -137 -131 -136c-31 0 -93 10 -93 13v59c0 -1 44 -13 80 -13c90 0 77 64 80 76v549z" />
    <glyph glyph-name="k" unicode="k" 
d="M72 0v706h66v-493l369 281h100l-250 -191l314 -303h-97l-271 262l-165 -127v-135h-66z" />
    <glyph glyph-name="l" unicode="l" horiz-adv-x="208" 
d="M71 0v706h67v-706h-67z" />
    <glyph glyph-name="m" unicode="m" horiz-adv-x="1167" 
d="M137 288v-288h-66v494h66v-64c29 26 85 77 216 77c38 0 77 -5 114 -18c75 -24 101 -62 117 -83c55 73 153 99 242 99c86 0 173 -23 227 -89c36 -46 38 -84 40 -124v-292h-66v275c-1 41 -3 94 -66 133c-41 27 -91 35 -140 35c-46 0 -123 -10 -169 -54
c-36 -35 -37 -70 -37 -95v-294h-66v272c-2 49 -5 119 -93 154c-34 14 -71 18 -108 18c-79 0 -126 -23 -145 -35c-64 -38 -65 -83 -66 -121z" />
    <glyph glyph-name="n" unicode="n" horiz-adv-x="708" 
d="M638 273v-273h-66v269c0 68 -5 176 -211 176c-68 0 -142 -16 -188 -64c-31 -32 -35 -58 -35 -104v-277h-67v494h67v-69c26 26 83 83 231 83c67 0 132 -15 174 -39c92 -51 94 -135 95 -196z" />
    <glyph glyph-name="o" unicode="o" horiz-adv-x="708" 
d="M366 510c209 -3 298 -141 298 -267c0 -148 -128 -257 -312 -257c-202 0 -309 123 -309 260c0 155 125 267 323 264zM349 456c-128 -3 -231 -78 -231 -210c0 -135 104 -204 233 -204c142 0 239 79 239 205c0 139 -116 211 -241 209z" />
    <glyph glyph-name="p" unicode="p" horiz-adv-x="708" 
d="M138 494v-78c58 68 149 92 239 92c190 0 283 -129 283 -260c0 -167 -143 -260 -297 -260c-114 0 -181 38 -225 88v-264h-64v682h64zM361 449c-73 0 -129 -23 -164 -54c-54 -48 -58 -112 -58 -150c0 -31 3 -85 40 -127c34 -41 103 -69 180 -69c120 0 227 66 227 200
c0 105 -73 200 -225 200z" />
    <glyph glyph-name="q" unicode="q" horiz-adv-x="708" 
d="M569 494h65v-675h-65v248c-35 -31 -92 -81 -222 -81c-160 0 -302 92 -302 263c0 170 131 262 291 262c145 0 207 -60 233 -85v68zM337 452c-176 -3 -218 -124 -218 -197c0 -151 127 -209 232 -209c83 0 151 34 183 76c28 35 36 81 36 126c0 38 -8 89 -34 125
c-38 53 -114 80 -199 79z" />
    <glyph glyph-name="r" unicode="r" horiz-adv-x="396" 
d="M136 494v-80c7 10 16 22 34 38c71 59 157 58 213 57v-69c-20 2 -33 4 -51 4c-33 0 -77 -6 -118 -29c-23 -13 -45 -34 -58 -59c-16 -32 -20 -59 -20 -88v-268h-65v494h65z" />
    <glyph glyph-name="s" unicode="s" horiz-adv-x="625" 
d="M30 121l71 17c9 -17 21 -42 63 -62c41 -21 109 -29 159 -29c76 0 149 17 180 53c10 12 18 29 18 46c0 10 -3 28 -19 43c-20 18 -50 23 -110 27c-38 3 -75 5 -113 7c-65 2 -112 4 -149 18c-36 15 -79 48 -79 112c0 19 4 43 16 66c27 48 75 65 95 71c48 15 105 18 142 18
c64 0 144 -8 198 -36c47 -26 65 -60 75 -80l-73 -15c-5 10 -12 25 -33 38c-45 29 -127 35 -170 35c-32 0 -103 -3 -144 -30c-37 -23 -37 -54 -37 -60c0 -16 6 -30 15 -40c19 -20 45 -23 110 -27c49 -3 99 -4 148 -8c59 -5 88 -12 108 -19c63 -23 87 -72 87 -118
c0 -25 -7 -48 -18 -67c-10 -18 -25 -33 -42 -45c-51 -36 -123 -48 -200 -48c-117 0 -262 20 -298 133z" />
    <glyph glyph-name="t" unicode="t" horiz-adv-x="313" 
d="M103 662l66 32v-200h140v-52h-140v-235c0 -96 0 -161 96 -161c15 0 29 1 44 3v-53c-23 -4 -42 -7 -66 -7c-52 0 -93 14 -116 50s-24 86 -24 156v247h-94v52h94v168z" />
    <glyph glyph-name="u" unicode="u" horiz-adv-x="708" 
d="M572 200v295h65v-495h-65v72c-29 -26 -96 -85 -244 -85c-21 0 -75 1 -132 20c-143 47 -123 193 -126 222v266h66v-271c0 -35 0 -85 32 -123c21 -25 70 -53 161 -53c55 0 142 12 195 52c47 35 46 63 48 100z" />
    <glyph glyph-name="v" unicode="v" horiz-adv-x="562" 
d="M283 73l205 421h75l-250 -494h-61l-250 494h75z" />
    <glyph glyph-name="w" unicode="w" horiz-adv-x="854" 
d="M393 494h69l160 -413l163 413h68l-200 -494h-63l-163 418l-160 -418h-63l-204 494h71l164 -413z" />
    <glyph glyph-name="x" unicode="x" horiz-adv-x="562" 
d="M280 302l182 192h85l-226 -237l245 -257h-87l-199 211l-197 -211h-87l244 257l-229 237h89z" />
    <glyph glyph-name="y" unicode="y" horiz-adv-x="562" 
d="M300 46l189 449h71l-233 -532c-44 -104 -67 -157 -214 -157c-42 0 -68 5 -102 12v62c31 -11 53 -18 99 -18c110 0 133 54 155 111l-265 522h80z" />
    <glyph glyph-name="z" unicode="z" horiz-adv-x="562" 
d="M546 55v-55h-535v53l440 386h-408v55h503v-47l-443 -392h443z" />
    <glyph glyph-name="braceleft" unicode="{" horiz-adv-x="354" 
d="M80 248v23c66 19 68 69 68 147v108c1 71 1 123 38 165c32 35 60 37 129 43v-24c-17 -4 -36 -9 -52 -21c-43 -31 -43 -74 -44 -118v-84c-1 -155 -1 -203 -80 -229c80 -28 80 -76 81 -203v-83c0 -40 0 -66 8 -91c17 -53 54 -64 87 -75v-24c-67 5 -102 9 -133 46
c-32 38 -33 86 -33 139v108c0 62 0 73 -4 93c-12 64 -51 76 -65 80z" />
    <glyph glyph-name="bar" unicode="|" horiz-adv-x="229" 
d="M145 958v-1216h-60v1216h60z" />
    <glyph glyph-name="braceright" unicode="}" horiz-adv-x="354" 
d="M274 271v-23c-14 -4 -53 -16 -65 -80c-4 -20 -4 -31 -4 -93v-108c0 -53 -1 -101 -33 -139c-31 -37 -66 -41 -133 -46v24c33 11 70 22 87 74c8 26 8 52 8 92v83c1 127 1 175 81 203c-79 26 -79 74 -80 229v84c-1 44 -1 87 -44 118c-16 12 -35 17 -52 21v24
c69 -6 97 -8 129 -43c37 -42 37 -94 38 -165v-108c0 -78 2 -128 68 -147z" />
    <glyph glyph-name="asciitilde" unicode="~" horiz-adv-x="729" 
d="M564 356l31 -55c-33 -42 -73 -77 -128 -77c-32 0 -50 9 -126 45c-21 10 -53 25 -83 25c-39 0 -53 -18 -91 -65l-33 54c16 25 53 80 123 80c39 0 75 -17 113 -35c60 -28 75 -35 97 -35c46 0 76 37 97 63z" />
    <glyph glyph-name="exclamdown" unicode="&#xa1;" horiz-adv-x="313" 
d="M115 507h46l12 -224v-283h-71v304zM99 608v98h77v-98h-77z" />
    <glyph glyph-name="cent" unicode="&#xa2;" 
d="M316 610h55v-104c18 0 42 -1 73 -9c125 -30 178 -117 196 -148l-62 -25c-23 38 -72 120 -207 129v-408c36 4 81 9 129 39c49 31 70 71 87 106l62 -24c-66 -117 -146 -169 -278 -178v-104h-55v104c-6 0 -12 0 -17 1c-146 14 -256 109 -256 259c0 98 46 166 106 208
c65 44 132 49 167 51v103zM316 44v409c-150 -12 -201 -125 -201 -204c0 -45 13 -90 40 -125c15 -18 33 -33 53 -46c44 -27 79 -31 108 -34z" />
    <glyph glyph-name="sterling" unicode="&#xa3;" horiz-adv-x="792" 
d="M48 391h157c-16 17 -64 66 -64 142c0 92 89 186 274 186c74 0 134 -16 181 -42c94 -55 107 -138 114 -189h-66c-11 145 -141 173 -226 173c-116 0 -208 -44 -208 -133c0 -66 58 -112 89 -137h231v-56h-182c18 -19 68 -75 68 -150c0 -20 -4 -35 -10 -57
c53 -32 125 -74 181 -74c69 0 98 55 98 122c0 13 -1 27 -2 40h62c1 -38 2 -77 -12 -118c-12 -36 -48 -107 -152 -107c-83 0 -154 52 -205 90c-14 -18 -27 -35 -58 -54c-49 -30 -97 -35 -127 -35c-91 0 -154 48 -154 116c0 64 63 103 142 103c67 0 120 -25 169 -49
c1 9 2 17 2 26c0 69 -70 127 -94 147h-208v56zM328 108c-37 23 -81 49 -141 49c-45 0 -84 -18 -84 -54c0 -32 32 -54 87 -54c30 0 62 7 92 23c24 12 34 23 46 36z" />
    <glyph glyph-name="yen" unicode="&#xa5;" horiz-adv-x="729" 
d="M723 694l-252 -326h176v-54h-219l-25 -33v-35h244v-54h-244v-192h-64v192h-255v54h255v35l-26 33h-229v54h185l-263 326h84l280 -357l274 357h79z" />
    <glyph glyph-name="Scaron" unicode="&#x160;" horiz-adv-x="812" 
d="M32 177l74 28c24 -57 62 -123 191 -150c38 -8 78 -11 117 -11c165 0 277 65 277 162c0 91 -89 110 -241 130c-44 5 -88 11 -131 17c-60 9 -106 16 -144 34c-55 26 -88 72 -88 133c0 106 103 205 325 205c135 0 249 -39 332 -139l-64 -35c-22 29 -85 113 -273 113
c-150 0 -248 -58 -248 -141c0 -60 57 -82 101 -91c34 -7 203 -29 242 -35c63 -10 119 -20 158 -37c61 -27 104 -78 104 -150c0 -38 -13 -74 -31 -102c-34 -52 -117 -126 -313 -126c-126 0 -192 18 -248 47c-89 46 -113 96 -140 148zM364 774l-107 126h65l84 -77l89 77h65
l-115 -126h-81z" />
    <glyph glyph-name="section" unicode="&#xa7;" horiz-adv-x="688" 
d="M80 -137l42 52c21 -9 42 -18 63 -26c56 -20 132 -33 174 -33c100 0 148 56 148 114c0 53 -40 76 -83 90c-36 12 -203 53 -231 62c-37 11 -157 47 -157 175c0 31 8 66 21 94c31 63 82 88 101 97c-7 10 -27 33 -27 77c0 60 48 159 201 159c97 0 173 -34 230 -60l-37 -52
c-50 22 -122 52 -196 52c-30 0 -60 -6 -81 -16c-27 -15 -48 -42 -48 -75c0 -54 45 -67 93 -81c59 -18 121 -30 181 -49c69 -21 176 -62 176 -196c0 -52 -19 -103 -51 -138c-19 -20 -35 -30 -52 -40c13 -18 31 -44 31 -92c0 -68 -50 -182 -227 -182c-111 0 -199 37 -271 68z
M203 453c-27 -17 -54 -34 -77 -73c-14 -25 -22 -51 -22 -78c0 -18 5 -80 86 -108c14 -6 199 -54 237 -64c37 -11 47 -15 73 -26c22 15 47 32 65 71c11 22 16 45 16 68c0 104 -89 128 -177 150c-46 11 -92 23 -137 36c-33 10 -44 14 -64 24z" />
    <glyph glyph-name="scaron" unicode="&#x161;" horiz-adv-x="625" 
d="M30 121l71 17c9 -17 21 -42 63 -62c41 -21 109 -29 159 -29c76 0 149 17 180 53c10 12 18 29 18 46c0 10 -3 28 -19 43c-20 18 -50 23 -110 27c-38 3 -75 5 -113 7c-65 2 -112 4 -149 18c-36 15 -79 48 -79 112c0 19 4 43 16 66c27 48 75 65 95 71c48 15 105 18 142 18
c64 0 144 -8 198 -36c47 -26 65 -60 75 -80l-73 -15c-5 10 -12 25 -33 38c-45 29 -127 35 -170 35c-32 0 -103 -3 -144 -30c-37 -23 -37 -54 -37 -60c0 -16 6 -30 15 -40c19 -20 45 -23 110 -27c49 -3 99 -4 148 -8c59 -5 88 -12 108 -19c63 -23 87 -72 87 -118
c0 -25 -7 -48 -18 -67c-10 -18 -25 -33 -42 -45c-51 -36 -123 -48 -200 -48c-117 0 -262 20 -298 133zM344 549h-61l-103 132h53l81 -85l83 85h54z" />
    <glyph glyph-name="copyright" unicode="&#xa9;" horiz-adv-x="833" 
d="M773 351c-1 -197 -155 -354 -357 -354c-185 0 -355 145 -355 356c0 204 163 356 355 356c207 0 358 -163 357 -358zM741 351c1 178 -137 326 -323 326c-183 0 -325 -146 -325 -324c0 -182 145 -324 324 -324c183 0 323 144 324 322zM568 253l42 -36
c-58 -76 -134 -94 -187 -94c-126 0 -230 94 -230 230c0 133 100 233 231 233c78 0 136 -32 186 -92l-42 -39c-20 24 -63 75 -144 75c-92 0 -173 -72 -173 -176c0 -102 81 -175 174 -175c81 0 125 52 143 74z" />
    <glyph glyph-name="ordfeminine" unicode="&#xaa;" horiz-adv-x="437" 
d="M75 599l-54 3c8 30 16 58 50 82c41 29 105 32 138 32c155 0 187 -49 187 -122v-148c0 -33 7 -47 55 -44v-41c-15 -2 -25 -4 -40 -4c-55 0 -59 30 -61 50c-24 -18 -76 -57 -176 -57c-41 0 -83 4 -115 29c-18 14 -41 42 -41 87c0 12 1 74 67 100c48 20 126 23 262 25
c-1 34 -3 78 -133 78c-113 0 -126 -34 -139 -70zM347 546c-59 0 -166 0 -217 -16c-20 -6 -57 -23 -57 -67c0 -39 39 -65 103 -65c49 0 101 14 132 37c36 26 39 54 39 111z" />
    <glyph glyph-name="guillemotleft" unicode="&#xab;" horiz-adv-x="521" 
d="M264 340l203 173v-57l-138 -144l138 -145v-57l-203 175v55zM55 340l200 171v-58l-136 -141l136 -142v-58l-200 173v55z" />
    <glyph glyph-name="logicalnot" unicode="&#xac;" 
d="M607 0v262h-607v59h607h60v-321h-60z" />
    <glyph glyph-name="registered" unicode="&#xae;" horiz-adv-x="833" 
d="M273 577h137c52 0 77 -1 104 -11c45 -17 68 -58 68 -100c0 -62 -45 -99 -100 -107c48 -17 63 -43 72 -98c10 -65 13 -89 33 -129h-75c-10 20 -14 40 -18 61c-2 10 -9 60 -11 71c-15 75 -57 75 -145 75v-207h-65v445zM339 527v-136h75c28 0 102 -1 102 70
c0 20 -8 38 -21 49c-19 17 -41 17 -95 17h-61zM773 351c-1 -197 -156 -354 -358 -354c-185 0 -355 145 -355 356c0 205 164 356 356 356c206 0 358 -163 357 -358zM741 352c1 178 -138 325 -324 325c-183 0 -325 -146 -325 -324c0 -182 146 -324 324 -324
c183 0 324 143 325 323z" />
    <glyph glyph-name="macron" unicode="&#xaf;" horiz-adv-x="375" 
d="M355 569h-335v52h335v-52z" />
    <glyph glyph-name="degree" unicode="&#xb0;" horiz-adv-x="354" 
d="M177 748c82 0 147 -66 147 -147s-65 -147 -147 -147c-81 0 -147 66 -147 147c0 82 66 147 147 147zM177 688c-49 0 -87 -39 -87 -87s38 -87 87 -87c48 0 87 39 87 87s-39 87 -87 87z" />
    <glyph glyph-name="plusminus" unicode="&#xb1;" 
d="M364 379v-256h-59v256h-264v59h264v256h59v-256h262v-59h-262zM626 59v-59h-585v59h585z" />
    <glyph glyph-name="twosuperior" unicode="&#xb2;" horiz-adv-x="479" 
d="M99 527l-48 7c7 41 16 91 67 128c29 20 71 34 121 34c103 0 179 -59 179 -146c0 -120 -134 -182 -285 -251h290v-41h-370v46c81 37 211 96 264 145c24 22 52 59 52 100c0 53 -41 105 -129 105c-51 0 -103 -19 -125 -60c-6 -10 -15 -32 -16 -67z" />
    <glyph glyph-name="threesuperior" unicode="&#xb3;" horiz-adv-x="479" 
d="M104 554l-45 15c16 43 44 123 187 123c34 0 71 -5 102 -20c55 -26 67 -74 67 -98c0 -43 -27 -69 -66 -85c13 -4 25 -8 40 -18c27 -18 45 -47 45 -82c0 -75 -64 -139 -192 -139c-145 0 -183 89 -195 118l43 15c13 -29 41 -91 155 -91c84 0 140 37 140 96
c0 25 -13 41 -22 49c-24 23 -61 24 -90 25h-79v41h59c27 0 56 1 81 15c12 7 34 24 34 56c0 60 -71 78 -121 78c-23 0 -62 -4 -92 -21c-35 -20 -43 -48 -51 -77z" />
    <glyph glyph-name="Zcaron" unicode="&#x17d;" horiz-adv-x="750" 
d="M55 706h695v-62l-653 -585h635v-59h-732v57l659 590h-604v59zM354 774l-107 126h65l84 -77l89 77h65l-115 -126h-81z" />
    <glyph glyph-name="paragraph" unicode="&#xb6;" 
d="M310 706h222v-44h-34v-829h-46v829h-157v-829h-46v497c-26 4 -56 8 -92 35c-45 34 -67 90 -67 147c0 71 30 117 61 144c54 48 118 49 159 50z" />
    <glyph glyph-name="periodcentered" unicode="&#xb7;" horiz-adv-x="271" 
d="M96 291v99h77v-99h-77z" />
    <glyph glyph-name="zcaron" unicode="&#x17e;" horiz-adv-x="562" 
d="M546 55v-55h-535v53l440 386h-408v55h503v-47l-443 -392h443zM325 549h-61l-103 132h53l81 -85l83 85h54z" />
    <glyph glyph-name="onesuperior" unicode="&#xb9;" horiz-adv-x="479" 
d="M130 564v40c80 0 108 20 128 85h32v-431h-47v331c-30 -18 -50 -26 -113 -25z" />
    <glyph glyph-name="ordmasculine" unicode="&#xba;" horiz-adv-x="479" 
d="M238 717c141 2 217 -86 217 -185c0 -123 -112 -183 -219 -184c-143 1 -212 91 -212 184c0 110 89 183 214 185zM234 672c-83 -3 -152 -51 -152 -142c0 -34 12 -64 29 -85c31 -37 80 -50 128 -51c98 1 159 59 159 137c0 88 -71 144 -164 141z" />
    <glyph glyph-name="guillemotright" unicode="&#xbb;" horiz-adv-x="521" 
d="M54 457v57l202 -173v-56l-202 -173v56l137 144zM266 454v58l200 -173v-53l-200 -173v58l135 141z" />
    <glyph glyph-name="OE" unicode="&#x152;" horiz-adv-x="1146" 
d="M596 0v23c-32 -15 -85 -39 -177 -39c-252 0 -381 190 -381 371c0 182 134 366 374 366c83 0 126 -18 184 -41v26h500v-59h-431v-251h401v-59h-401v-278h445v-59h-514zM596 83v534c-55 29 -116 45 -178 45c-209 0 -304 -170 -304 -307c0 -144 93 -310 319 -310
c74 0 120 20 163 38z" />
    <glyph glyph-name="oe" unicode="&#x153;" horiz-adv-x="1188" 
d="M1094 173l52 -38c-21 -28 -49 -66 -102 -99c-53 -32 -117 -48 -179 -48c-72 0 -140 21 -192 59c-45 33 -64 67 -72 81c-15 -25 -38 -62 -98 -96c-29 -16 -84 -43 -168 -43c-167 0 -295 101 -295 259c0 163 135 262 301 262c62 0 122 -15 168 -43c48 -28 69 -61 87 -90
c9 17 21 38 50 63c54 49 128 70 202 70c45 0 142 -9 216 -80c65 -63 74 -130 82 -189h-511c1 -20 5 -66 42 -113c54 -66 137 -83 194 -83c87 0 139 38 159 53c37 29 54 58 64 75zM636 296h430c-5 21 -15 66 -63 106c-56 47 -121 52 -158 52c-34 0 -102 -3 -155 -57
c-12 -12 -43 -47 -54 -101zM338 455c-123 0 -223 -80 -223 -207c0 -52 18 -102 48 -135c35 -39 98 -68 174 -68c126 0 222 81 222 202c0 128 -102 208 -221 208z" />
    <glyph glyph-name="Ydieresis" unicode="&#x178;" horiz-adv-x="729" 
d="M371 343l273 363h79l-320 -420v-286h-64v286l-333 420h84zM493 900h72v-97h-72v97zM170 803v97h72v-97h-72z" />
    <glyph glyph-name="questiondown" unicode="&#xbf;" horiz-adv-x="708" 
d="M569 223l58 -22c-17 -49 -44 -125 -126 -175c-44 -27 -101 -42 -171 -42c-167 0 -279 87 -279 222c0 68 27 122 64 154c33 30 75 46 118 59c96 28 97 28 99 91h62c-3 -88 -8 -109 -102 -136c-23 -7 -46 -14 -68 -23c-31 -12 -107 -41 -107 -141c0 -127 122 -167 213 -167
c45 0 96 9 146 43c57 38 73 82 93 137zM402 608h-76v98h76v-98z" />
    <glyph glyph-name="Agrave" unicode="&#xc0;" horiz-adv-x="792" 
d="M354 706h76l356 -706h-73l-91 183h-455l-90 -183h-70zM594 239l-202 404l-198 -404h400zM385 774l-149 126h111l86 -126h-48z" />
    <glyph glyph-name="Aacute" unicode="&#xc1;" horiz-adv-x="792" 
d="M354 706h76l356 -706h-73l-91 183h-455l-90 -183h-70zM594 239l-202 404l-198 -404h400zM358 774l85 126h111l-151 -126h-45z" />
    <glyph glyph-name="Acircumflex" unicode="&#xc2;" horiz-adv-x="792" 
d="M354 706h76l356 -706h-73l-91 183h-455l-90 -183h-70zM594 239l-202 404l-198 -404h400zM245 774l115 126h78l108 -126h-64l-85 77l-89 -77h-63z" />
    <glyph glyph-name="Atilde" unicode="&#xc3;" horiz-adv-x="792" 
d="M354 706h76l356 -706h-73l-91 183h-455l-90 -183h-70zM594 239l-202 404l-198 -404h400zM218 791l-28 17c25 31 61 74 126 74c42 0 83 -11 122 -23c28 -9 45 -14 66 -14c43 0 59 25 69 40l31 -12c-21 -33 -54 -82 -125 -82c-55 0 -111 29 -166 39c-7 1 -15 2 -22 2
c-36 0 -54 -19 -73 -41z" />
    <glyph glyph-name="Adieresis" unicode="&#xc4;" horiz-adv-x="792" 
d="M354 706h76l356 -706h-73l-91 183h-455l-90 -183h-70zM594 239l-202 404l-198 -404h400zM517 895h72v-97h-72v97zM194 798v97h72v-97h-72z" />
    <glyph glyph-name="Aring" unicode="&#xc5;" horiz-adv-x="792" 
d="M354 706h76l356 -706h-73l-91 183h-455l-90 -183h-70zM594 239l-202 404l-198 -404h400zM388 913c83 3 117 -41 117 -82c0 -51 -43 -89 -112 -89c-65 0 -115 32 -115 85c0 51 49 84 110 86zM389 872c-44 -1 -59 -25 -59 -45s16 -42 61 -42c25 0 61 10 61 42
c0 33 -30 46 -63 45z" />
    <glyph glyph-name="AE" unicode="&#xc6;" horiz-adv-x="1125" 
d="M495 706h576v-59h-487v-253h447v-59h-447v-276h501v-59h-567v174h-330l-124 -174h-76zM518 230v367c0 9 0 18 1 26c1 9 2 17 4 25l-295 -418h290z" />
    <glyph glyph-name="Ccedilla" unicode="&#xc7;" horiz-adv-x="812" 
d="M746 219l61 -28c-19 -34 -47 -82 -112 -130c-93 -69 -187 -79 -264 -79v-42c18 -1 41 -1 63 -14c23 -13 34 -33 34 -55c0 -17 -8 -76 -119 -76c-25 0 -52 3 -78 7v32c20 -2 41 -4 61 -4c14 0 72 0 72 35c0 39 -52 38 -77 38v81c-34 4 -106 12 -179 59
c-93 59 -167 170 -167 312c0 215 174 373 397 373c69 0 142 -15 208 -51c82 -45 117 -101 143 -142l-59 -34c-20 32 -46 76 -98 111c-54 35 -124 53 -191 53c-189 0 -325 -131 -325 -314c0 -164 121 -307 326 -307c198 0 275 127 304 175z" />
    <glyph glyph-name="Egrave" unicode="&#xc8;" horiz-adv-x="833" 
d="M83 0v706h676v-59h-607v-247h561v-59h-561v-282h636v-59h-705zM416 774l-149 126h111l86 -126h-48z" />
    <glyph glyph-name="Eacute" unicode="&#xc9;" horiz-adv-x="833" 
d="M83 0v706h676v-59h-607v-247h561v-59h-561v-282h636v-59h-705zM379 774l85 126h111l-151 -126h-45z" />
    <glyph glyph-name="Ecircumflex" unicode="&#xca;" horiz-adv-x="833" 
d="M83 0v706h676v-59h-607v-247h561v-59h-561v-282h636v-59h-705zM266 774l115 126h78l108 -126h-64l-85 77l-89 -77h-63z" />
    <glyph glyph-name="Edieresis" unicode="&#xcb;" horiz-adv-x="833" 
d="M83 0v706h676v-59h-607v-247h561v-59h-561v-282h636v-59h-705zM545 900h72v-97h-72v97zM222 803v97h72v-97h-72z" />
    <glyph glyph-name="Igrave" unicode="&#xcc;" horiz-adv-x="229" 
d="M82 0v706h67v-706h-67zM104 774l-149 126h111l86 -126h-48z" />
    <glyph glyph-name="Iacute" unicode="&#xcd;" horiz-adv-x="229" 
d="M82 0v706h67v-706h-67zM77 774l85 126h111l-151 -126h-45z" />
    <glyph glyph-name="Icircumflex" unicode="&#xce;" horiz-adv-x="229" 
d="M82 0v706h67v-706h-67zM-36 774l115 126h78l108 -126h-64l-85 77l-89 -77h-63z" />
    <glyph glyph-name="Idieresis" unicode="&#xcf;" horiz-adv-x="229" 
d="M82 0v706h67v-706h-67zM243 900h72v-97h-72v97zM-80 803v97h72v-97h-72z" />
    <glyph glyph-name="Eth" unicode="&#xd0;" horiz-adv-x="854" 
d="M83 0v356h-83v51h83v299h353c64 0 123 -2 188 -34c131 -64 182 -198 182 -321c0 -136 -60 -240 -143 -294c-87 -57 -207 -57 -260 -57h-320zM153 647v-240h349v-51h-349v-297h225c91 0 197 1 273 69c64 58 83 142 83 219c0 69 -17 144 -62 202c-74 97 -183 98 -235 98
h-284z" />
    <glyph glyph-name="Ntilde" unicode="&#xd1;" horiz-adv-x="896" 
d="M751 706h63v-706h-63l-605 616v-616h-63v706h63l605 -619v619zM270 791l-28 17c25 31 61 74 126 74c42 0 83 -11 122 -23c28 -9 45 -14 66 -14c43 0 59 25 69 40l31 -12c-21 -33 -54 -82 -125 -82c-55 0 -111 29 -166 39c-7 1 -15 2 -22 2c-36 0 -54 -19 -73 -41z" />
    <glyph glyph-name="Ograve" unicode="&#xd2;" horiz-adv-x="917" 
d="M461 728c280 -2 415 -192 415 -373c0 -204 -163 -374 -422 -374c-247 0 -412 159 -412 373c0 208 162 374 419 374zM439 667c-226 -10 -323 -169 -323 -316c0 -194 150 -310 344 -310c187 0 339 113 339 318c0 89 -37 190 -124 248c-33 22 -119 65 -236 60zM447 774
l-149 126h111l86 -126h-48z" />
    <glyph glyph-name="Oacute" unicode="&#xd3;" horiz-adv-x="917" 
d="M461 728c280 -2 415 -192 415 -373c0 -204 -163 -374 -422 -374c-247 0 -412 159 -412 373c0 208 162 374 419 374zM439 667c-226 -10 -323 -169 -323 -316c0 -194 150 -310 344 -310c187 0 339 113 339 318c0 89 -37 190 -124 248c-33 22 -119 65 -236 60zM420 774
l85 126h111l-151 -126h-45z" />
    <glyph glyph-name="Ocircumflex" unicode="&#xd4;" horiz-adv-x="917" 
d="M461 728c280 -2 415 -192 415 -373c0 -204 -163 -374 -422 -374c-247 0 -412 159 -412 373c0 208 162 374 419 374zM439 667c-226 -10 -323 -169 -323 -316c0 -194 150 -310 344 -310c187 0 339 113 339 318c0 89 -37 190 -124 248c-33 22 -119 65 -236 60zM307 774
l115 126h78l108 -126h-64l-85 77l-89 -77h-63z" />
    <glyph glyph-name="Otilde" unicode="&#xd5;" horiz-adv-x="917" 
d="M461 728c280 -2 415 -192 415 -373c0 -204 -163 -374 -422 -374c-247 0 -412 159 -412 373c0 208 162 374 419 374zM439 667c-226 -10 -323 -169 -323 -316c0 -194 150 -310 344 -310c187 0 339 113 339 318c0 89 -37 190 -124 248c-33 22 -119 65 -236 60zM280 791
l-28 17c25 31 61 74 126 74c42 0 83 -11 122 -23c28 -9 45 -14 66 -14c43 0 59 25 69 40l31 -12c-21 -33 -54 -82 -125 -82c-55 0 -111 29 -166 39c-7 1 -15 2 -22 2c-36 0 -54 -19 -73 -41z" />
    <glyph glyph-name="Odieresis" unicode="&#xd6;" horiz-adv-x="917" 
d="M461 728c280 -2 415 -192 415 -373c0 -204 -163 -374 -422 -374c-247 0 -412 159 -412 373c0 208 162 374 419 374zM439 667c-226 -10 -323 -169 -323 -316c0 -194 150 -310 344 -310c187 0 339 113 339 318c0 89 -37 190 -124 248c-33 22 -119 65 -236 60zM584 895h72
v-97h-72v97zM261 798v97h72v-97h-72z" />
    <glyph glyph-name="multiply" unicode="&#xd7;" 
d="M582 83l-41 -41l-208 207l-207 -207l-42 41l207 208l-207 206l42 42l207 -207l208 207l41 -42l-207 -206z" />
    <glyph glyph-name="Oslash" unicode="&#xd8;" horiz-adv-x="917" 
d="M36 40l89 73c-28 36 -84 109 -84 235c0 194 146 374 420 374c42 0 123 -3 211 -47c36 -17 53 -31 77 -51l92 75l36 -42l-89 -73c41 -43 87 -125 87 -234c0 -216 -176 -374 -421 -374c-74 0 -194 15 -290 98l-94 -76zM177 155l522 428c-20 16 -34 27 -67 42
c-72 33 -141 37 -178 37c-230 0 -340 -163 -340 -312c0 -107 44 -168 63 -195zM737 544l-523 -428c19 -15 37 -30 75 -46c64 -27 127 -34 173 -34c186 0 337 117 337 315c0 104 -38 158 -62 193z" />
    <glyph glyph-name="Ugrave" unicode="&#xd9;" horiz-adv-x="875" 
d="M79 280v427h65v-421c-4 -180 108 -240 293 -240c216 0 293 77 293 252v409h64v-419c0 -214 -118 -306 -357 -306c-241 0 -358 94 -358 298zM426 774l-149 126h111l86 -126h-48z" />
    <glyph glyph-name="Uacute" unicode="&#xda;" horiz-adv-x="875" 
d="M79 280v427h65v-421c-4 -180 108 -240 293 -240c216 0 293 77 293 252v409h64v-419c0 -214 -118 -306 -357 -306c-241 0 -358 94 -358 298zM399 774l85 126h111l-151 -126h-45z" />
    <glyph glyph-name="Ucircumflex" unicode="&#xdb;" horiz-adv-x="875" 
d="M79 280v427h65v-421c-4 -180 108 -240 293 -240c216 0 293 77 293 252v409h64v-419c0 -214 -118 -306 -357 -306c-241 0 -358 94 -358 298zM286 774l115 126h78l108 -126h-64l-85 77l-89 -77h-63z" />
    <glyph glyph-name="Udieresis" unicode="&#xdc;" horiz-adv-x="875" 
d="M79 280v427h65v-421c-4 -180 108 -240 293 -240c216 0 293 77 293 252v409h64v-419c0 -214 -118 -306 -357 -306c-241 0 -358 94 -358 298zM564 897h72v-97h-72v97zM241 800v97h72v-97h-72z" />
    <glyph glyph-name="Yacute" unicode="&#xdd;" horiz-adv-x="729" 
d="M371 343l273 363h79l-320 -420v-286h-64v286l-333 420h84zM327 774l85 126h111l-151 -126h-45z" />
    <glyph glyph-name="Thorn" unicode="&#xde;" horiz-adv-x="812" 
d="M83 0v706h69v-147h399c64 -1 136 -2 192 -60c34 -35 51 -83 51 -133c0 -79 -40 -135 -91 -164c-55 -32 -120 -33 -168 -33h-383v-169h-69zM558 500h-406v-273h359c49 0 105 0 148 25c48 28 62 72 62 113c0 17 -2 39 -12 61c-32 71 -97 73 -151 74z" />
    <glyph glyph-name="germandbls" unicode="&#xdf;" horiz-adv-x="708" 
d="M72 0v502c0 14 0 28 2 43c15 155 179 179 275 179c38 0 76 -4 113 -13c20 -5 90 -21 129 -74c16 -22 27 -50 27 -83c0 -50 -27 -103 -88 -125l-20 -6c7 -2 14 -3 21 -6c17 -5 33 -12 48 -21c67 -41 85 -118 85 -179c0 -96 -45 -229 -227 -229c-93 0 -147 38 -171 91
c-16 34 -16 64 -16 85h64c1 -25 4 -67 39 -95c22 -16 56 -25 88 -25c104 0 155 74 155 168c0 78 -27 110 -40 124c-47 50 -116 53 -193 53c-22 0 -44 0 -66 -1v54c38 0 70 0 105 2c27 2 54 4 79 14c42 17 70 51 70 93c0 35 -20 66 -62 87c-38 19 -97 27 -141 27
c-45 0 -121 -9 -163 -40c-46 -35 -48 -84 -50 -126v-499h-63z" />
    <glyph glyph-name="agrave" unicode="&#xe0;" 
d="M667 51v-50c-20 -2 -39 -4 -60 -4c-56 0 -74 23 -82 76c-39 -29 -114 -85 -263 -85c-91 0 -129 20 -144 28c-45 26 -77 73 -77 132c0 54 27 97 60 121c71 51 230 53 423 55c0 59 -1 124 -204 124c-157 0 -184 -42 -204 -101l-69 3c4 18 11 41 26 64c53 81 150 94 244 94
c63 0 148 -7 202 -38c63 -36 66 -107 66 -135v-211c0 -54 11 -77 82 -73zM525 268c-150 0 -312 -2 -371 -46c-30 -21 -42 -49 -42 -75c0 -91 113 -100 158 -100c100 0 187 37 223 78c31 36 33 82 32 143zM185 699h110l75 -145h-43z" />
    <glyph glyph-name="aacute" unicode="&#xe1;" 
d="M667 51v-50c-20 -2 -39 -4 -60 -4c-56 0 -74 23 -82 76c-39 -29 -114 -85 -263 -85c-91 0 -129 20 -144 28c-45 26 -77 73 -77 132c0 54 27 97 60 121c71 51 230 53 423 55c0 59 -1 124 -204 124c-157 0 -184 -42 -204 -101l-69 3c4 18 11 41 26 64c53 81 150 94 244 94
c63 0 148 -7 202 -38c63 -36 66 -107 66 -135v-211c0 -54 11 -77 82 -73zM525 268c-150 0 -312 -2 -371 -46c-30 -21 -42 -49 -42 -75c0 -91 113 -100 158 -100c100 0 187 37 223 78c31 36 33 82 32 143zM296 555l78 145h109l-144 -145h-43z" />
    <glyph glyph-name="acircumflex" unicode="&#xe2;" 
d="M667 51v-50c-20 -2 -39 -4 -60 -4c-56 0 -74 23 -82 76c-39 -29 -114 -85 -263 -85c-91 0 -129 20 -144 28c-45 26 -77 73 -77 132c0 54 27 97 60 121c71 51 230 53 423 55c0 59 -1 124 -204 124c-157 0 -184 -42 -204 -101l-69 3c4 18 11 41 26 64c53 81 150 94 244 94
c63 0 148 -7 202 -38c63 -36 66 -107 66 -135v-211c0 -54 11 -77 82 -73zM525 268c-150 0 -312 -2 -371 -46c-30 -21 -42 -49 -42 -75c0 -91 113 -100 158 -100c100 0 187 37 223 78c31 36 33 82 32 143zM305 681h59l103 -132h-52l-81 85l-83 -85h-54z" />
    <glyph glyph-name="atilde" unicode="&#xe3;" 
d="M667 51v-50c-20 -2 -39 -4 -60 -4c-56 0 -74 23 -82 76c-39 -29 -114 -85 -263 -85c-91 0 -129 20 -144 28c-45 26 -77 73 -77 132c0 54 27 97 60 121c71 51 230 53 423 55c0 59 -1 124 -204 124c-157 0 -184 -42 -204 -101l-69 3c4 18 11 41 26 64c53 81 150 94 244 94
c63 0 148 -7 202 -38c63 -36 66 -107 66 -135v-211c0 -54 11 -77 82 -73zM525 268c-150 0 -312 -2 -371 -46c-30 -21 -42 -49 -42 -75c0 -91 113 -100 158 -100c100 0 187 37 223 78c31 36 33 82 32 143zM155 597l-28 18c26 31 63 74 128 74c29 0 53 -7 140 -31
c15 -4 33 -9 49 -9c38 0 57 26 67 41l31 -12c-15 -23 -51 -82 -125 -82c-22 0 -44 5 -66 11c-34 10 -67 23 -102 29c-7 1 -14 2 -20 2c-40 0 -60 -24 -74 -41z" />
    <glyph glyph-name="adieresis" unicode="&#xe4;" 
d="M667 51v-50c-20 -2 -39 -4 -60 -4c-56 0 -74 23 -82 76c-39 -29 -114 -85 -263 -85c-91 0 -129 20 -144 28c-45 26 -77 73 -77 132c0 54 27 97 60 121c71 51 230 53 423 55c0 59 -1 124 -204 124c-157 0 -184 -42 -204 -101l-69 3c4 18 11 41 26 64c53 81 150 94 244 94
c63 0 148 -7 202 -38c63 -36 66 -107 66 -135v-211c0 -54 11 -77 82 -73zM525 268c-150 0 -312 -2 -371 -46c-30 -21 -42 -49 -42 -75c0 -91 113 -100 158 -100c100 0 187 37 223 78c31 36 33 82 32 143zM162 659h70v-96h-70v96zM427 563v96h70v-96h-70z" />
    <glyph glyph-name="aring" unicode="&#xe5;" 
d="M667 51v-50c-20 -2 -39 -4 -60 -4c-56 0 -74 23 -82 76c-39 -29 -114 -85 -263 -85c-91 0 -129 20 -144 28c-45 26 -77 73 -77 132c0 54 27 97 60 121c71 51 230 53 423 55c0 59 -1 124 -204 124c-157 0 -184 -42 -204 -101l-69 3c4 18 11 41 26 64c53 81 150 94 244 94
c63 0 148 -7 202 -38c63 -36 66 -107 66 -135v-211c0 -54 11 -77 82 -73zM525 268c-150 0 -312 -2 -371 -46c-30 -21 -42 -49 -42 -75c0 -91 113 -100 158 -100c100 0 187 37 223 78c31 36 33 82 32 143zM323 716c71 4 122 -31 122 -85c0 -55 -56 -87 -114 -87
c-53 0 -114 27 -114 85c0 56 54 84 106 87zM329 675c-34 -1 -60 -19 -60 -44c0 -15 10 -43 61 -43c45 0 62 22 62 43s-20 45 -63 44z" />
    <glyph glyph-name="ae" unicode="&#xe6;" horiz-adv-x="1146" 
d="M131 349l-71 6c6 24 15 58 51 92c22 21 73 63 223 63c24 0 48 -1 72 -4c38 -4 76 -10 111 -26c50 -22 62 -48 73 -72c37 56 121 101 230 101c99 0 205 -40 253 -135c26 -51 28 -102 30 -129h-498c0 -19 -1 -73 36 -122c52 -70 148 -79 192 -79c50 0 108 12 153 43
s58 66 65 83l52 -34c-10 -20 -22 -46 -53 -75c-69 -64 -170 -75 -218 -75c-54 0 -128 12 -183 45c-49 29 -67 60 -78 81c-6 -16 -14 -35 -44 -60c-60 -50 -150 -66 -239 -66c-31 0 -61 2 -92 8c-42 7 -95 23 -128 69c-19 26 -28 58 -28 88c0 40 16 74 38 95
c56 53 166 53 243 53h219c-1 68 -7 107 -71 133c-43 17 -103 21 -139 21c-38 0 -101 -4 -142 -27c-41 -22 -51 -56 -57 -77zM609 299h419c-4 22 -10 63 -50 99c-32 30 -87 54 -157 54c-73 0 -136 -27 -172 -68c-28 -30 -34 -60 -40 -85zM540 245h-254
c-57 0 -171 -1 -171 -96c0 -53 30 -91 125 -103c19 -3 38 -4 57 -4c75 0 149 21 193 61c45 41 47 91 50 142z" />
    <glyph glyph-name="ccedilla" unicode="&#xe7;" 
d="M582 193l66 -25c-34 -58 -101 -171 -290 -179v-49c18 -1 41 -1 63 -14c23 -13 34 -33 34 -55c0 -17 -8 -76 -119 -76c-25 0 -52 3 -78 7v32c20 -2 41 -4 61 -4c14 0 72 0 72 35c0 39 -52 38 -77 38v86c-38 3 -114 9 -184 65c-58 47 -90 111 -90 196
c0 183 165 264 308 264c61 0 132 -15 190 -52s84 -80 100 -105l-65 -28c-26 41 -82 128 -226 128c-161 0 -233 -105 -233 -206c0 -125 99 -204 230 -204c68 0 134 24 174 57c37 30 54 68 64 89z" />
    <glyph glyph-name="egrave" unicode="&#xe8;" 
d="M574 173l53 -37c-19 -26 -50 -69 -105 -102c-56 -33 -124 -46 -178 -46c-170 0 -297 114 -297 271c0 75 31 134 67 171c45 45 124 80 214 80c54 0 149 -13 221 -85c67 -67 74 -139 78 -184h-511c8 -131 119 -196 234 -196c17 0 34 1 49 4c78 14 119 53 138 73
c20 21 28 35 37 51zM118 296h429c-8 33 -23 81 -83 120c-29 19 -71 39 -139 39c-49 0 -111 -10 -162 -67c-35 -39 -42 -76 -45 -92zM185 699h110l75 -145h-43z" />
    <glyph glyph-name="eacute" unicode="&#xe9;" 
d="M574 173l53 -37c-19 -26 -50 -69 -105 -102c-56 -33 -124 -46 -178 -46c-170 0 -297 114 -297 271c0 75 31 134 67 171c45 45 124 80 214 80c54 0 149 -13 221 -85c67 -67 74 -139 78 -184h-511c8 -131 119 -196 234 -196c17 0 34 1 49 4c78 14 119 53 138 73
c20 21 28 35 37 51zM118 296h429c-8 33 -23 81 -83 120c-29 19 -71 39 -139 39c-49 0 -111 -10 -162 -67c-35 -39 -42 -76 -45 -92zM296 555l78 145h109l-144 -145h-43z" />
    <glyph glyph-name="ecircumflex" unicode="&#xea;" 
d="M574 173l53 -37c-19 -26 -50 -69 -105 -102c-56 -33 -124 -46 -178 -46c-170 0 -297 114 -297 271c0 75 31 134 67 171c45 45 124 80 214 80c54 0 149 -13 221 -85c67 -67 74 -139 78 -184h-511c8 -131 119 -196 234 -196c17 0 34 1 49 4c78 14 119 53 138 73
c20 21 28 35 37 51zM118 296h429c-8 33 -23 81 -83 120c-29 19 -71 39 -139 39c-49 0 -111 -10 -162 -67c-35 -39 -42 -76 -45 -92zM305 681h59l103 -132h-52l-81 85l-83 -85h-54z" />
    <glyph glyph-name="edieresis" unicode="&#xeb;" 
d="M574 173l53 -37c-19 -26 -50 -69 -105 -102c-56 -33 -124 -46 -178 -46c-170 0 -297 114 -297 271c0 75 31 134 67 171c45 45 124 80 214 80c54 0 149 -13 221 -85c67 -67 74 -139 78 -184h-511c8 -131 119 -196 234 -196c17 0 34 1 49 4c78 14 119 53 138 73
c20 21 28 35 37 51zM118 296h429c-8 33 -23 81 -83 120c-29 19 -71 39 -139 39c-49 0 -111 -10 -162 -67c-35 -39 -42 -76 -45 -92zM167 665h70v-96h-70v96zM432 569v96h70v-96h-70z" />
    <glyph glyph-name="igrave" unicode="&#xec;" horiz-adv-x="208" 
d="M71 0v494h66v-494h-66zM-44 699h110l75 -145h-43z" />
    <glyph glyph-name="iacute" unicode="&#xed;" horiz-adv-x="208" 
d="M71 0v494h66v-494h-66zM67 555l78 145h109l-144 -145h-43z" />
    <glyph glyph-name="icircumflex" unicode="&#xee;" horiz-adv-x="208" 
d="M71 0v494h66v-494h-66zM76 681h59l103 -132h-52l-81 85l-83 -85h-54z" />
    <glyph glyph-name="idieresis" unicode="&#xef;" horiz-adv-x="208" 
d="M71 0v494h66v-494h-66zM-62 665h70v-96h-70v96zM203 569v96h70v-96h-70z" />
    <glyph glyph-name="eth" unicode="&#xf0;" horiz-adv-x="708" 
d="M601 685l25 -46l-115 -26c97 -86 159 -206 159 -336c0 -136 -81 -290 -322 -290c-200 0 -304 116 -304 263c0 176 164 260 307 260c130 0 186 -56 209 -79c-13 31 -38 92 -131 165l-223 -48l-24 47l197 43l-25 18c-2 2 -25 18 -63 39l84 24c43 -29 46 -31 54 -37
c5 -4 28 -22 34 -26zM349 455c-111 -2 -231 -63 -231 -208c0 -126 89 -206 234 -206c133 0 238 72 238 207c0 147 -127 209 -241 207z" />
    <glyph glyph-name="ntilde" unicode="&#xf1;" horiz-adv-x="708" 
d="M638 273v-273h-66v269c0 68 -5 176 -211 176c-68 0 -142 -16 -188 -64c-31 -32 -35 -58 -35 -104v-277h-67v494h67v-69c26 26 83 83 231 83c67 0 132 -15 174 -39c92 -51 94 -135 95 -196zM177 597l-28 18c26 31 63 74 128 74c29 0 53 -7 140 -31c15 -4 33 -9 49 -9
c38 0 57 26 67 41l31 -12c-15 -23 -51 -82 -125 -82c-22 0 -44 5 -66 11c-34 10 -67 23 -102 29c-7 1 -14 2 -20 2c-40 0 -60 -24 -74 -41z" />
    <glyph glyph-name="ograve" unicode="&#xf2;" horiz-adv-x="708" 
d="M366 510c209 -3 298 -141 298 -267c0 -148 -128 -257 -312 -257c-202 0 -309 123 -309 260c0 155 125 267 323 264zM349 456c-128 -3 -231 -78 -231 -210c0 -135 104 -204 233 -204c142 0 239 79 239 205c0 139 -116 211 -241 209zM207 699h110l75 -145h-43z" />
    <glyph glyph-name="oacute" unicode="&#xf3;" horiz-adv-x="708" 
d="M366 510c209 -3 298 -141 298 -267c0 -148 -128 -257 -312 -257c-202 0 -309 123 -309 260c0 155 125 267 323 264zM349 456c-128 -3 -231 -78 -231 -210c0 -135 104 -204 233 -204c142 0 239 79 239 205c0 139 -116 211 -241 209zM318 555l78 145h109l-144 -145h-43z
" />
    <glyph glyph-name="ocircumflex" unicode="&#xf4;" horiz-adv-x="708" 
d="M366 510c209 -3 298 -141 298 -267c0 -148 -128 -257 -312 -257c-202 0 -309 123 -309 260c0 155 125 267 323 264zM349 456c-128 -3 -231 -78 -231 -210c0 -135 104 -204 233 -204c142 0 239 79 239 205c0 139 -116 211 -241 209zM327 681h59l103 -132h-52l-81 85
l-83 -85h-54z" />
    <glyph glyph-name="otilde" unicode="&#xf5;" horiz-adv-x="708" 
d="M366 510c209 -3 298 -141 298 -267c0 -148 -128 -257 -312 -257c-202 0 -309 123 -309 260c0 155 125 267 323 264zM349 456c-128 -3 -231 -78 -231 -210c0 -135 104 -204 233 -204c142 0 239 79 239 205c0 139 -116 211 -241 209zM177 597l-28 18c26 31 63 74 128 74
c29 0 53 -7 140 -31c15 -4 33 -9 49 -9c38 0 57 26 67 41l31 -12c-15 -23 -51 -82 -125 -82c-22 0 -44 5 -66 11c-34 10 -67 23 -102 29c-7 1 -14 2 -20 2c-40 0 -60 -24 -74 -41z" />
    <glyph glyph-name="odieresis" unicode="&#xf6;" horiz-adv-x="708" 
d="M366 510c209 -3 298 -141 298 -267c0 -148 -128 -257 -312 -257c-202 0 -309 123 -309 260c0 155 125 267 323 264zM349 456c-128 -3 -231 -78 -231 -210c0 -135 104 -204 233 -204c142 0 239 79 239 205c0 139 -116 211 -241 209zM185 659h70v-96h-70v96zM450 563v96h70
v-96h-70z" />
    <glyph glyph-name="divide" unicode="&#xf7;" 
d="M381 160c0 -23 -18 -45 -46 -45c-27 0 -46 20 -46 45c0 23 18 46 46 46s46 -22 46 -46zM381 420c0 -23 -18 -45 -46 -45c-27 0 -46 20 -46 45c0 23 18 46 46 46s46 -22 46 -46zM666 320v-59h-666v59h666z" />
    <glyph glyph-name="oslash" unicode="&#xf8;" horiz-adv-x="708" 
d="M548 455l71 59l35 -39l-65 -55c10 -11 21 -22 34 -45c23 -39 36 -83 36 -128c0 -65 -26 -131 -76 -178c-53 -50 -137 -82 -232 -82c-109 0 -172 40 -208 62l-76 -64l-35 40l71 60c-25 34 -62 85 -62 166c0 59 23 119 63 164c68 76 173 96 246 96c113 0 173 -39 198 -56z
M152 125l349 291c-13 8 -25 16 -50 24c-36 12 -71 15 -97 15c-136 0 -245 -83 -245 -208c0 -72 32 -109 43 -122zM543 382l-352 -294l15 -9c27 -16 83 -35 145 -35c72 0 135 25 175 61c36 32 65 84 65 148c0 69 -30 107 -48 129z" />
    <glyph glyph-name="ugrave" unicode="&#xf9;" horiz-adv-x="708" 
d="M572 200v295h65v-495h-65v72c-29 -26 -96 -85 -244 -85c-21 0 -75 1 -132 20c-143 47 -123 193 -126 222v266h66v-271c0 -35 0 -85 32 -123c21 -25 70 -53 161 -53c55 0 142 12 195 52c47 35 46 63 48 100zM207 699h110l75 -145h-43z" />
    <glyph glyph-name="uacute" unicode="&#xfa;" horiz-adv-x="708" 
d="M572 200v295h65v-495h-65v72c-29 -26 -96 -85 -244 -85c-21 0 -75 1 -132 20c-143 47 -123 193 -126 222v266h66v-271c0 -35 0 -85 32 -123c21 -25 70 -53 161 -53c55 0 142 12 195 52c47 35 46 63 48 100zM318 555l78 145h109l-144 -145h-43z" />
    <glyph glyph-name="ucircumflex" unicode="&#xfb;" horiz-adv-x="708" 
d="M572 200v295h65v-495h-65v72c-29 -26 -96 -85 -244 -85c-21 0 -75 1 -132 20c-143 47 -123 193 -126 222v266h66v-271c0 -35 0 -85 32 -123c21 -25 70 -53 161 -53c55 0 142 12 195 52c47 35 46 63 48 100zM327 681h59l103 -132h-52l-81 85l-83 -85h-54z" />
    <glyph glyph-name="udieresis" unicode="&#xfc;" horiz-adv-x="708" 
d="M572 200v295h65v-495h-65v72c-29 -26 -96 -85 -244 -85c-21 0 -75 1 -132 20c-143 47 -123 193 -126 222v266h66v-271c0 -35 0 -85 32 -123c21 -25 70 -53 161 -53c55 0 142 12 195 52c47 35 46 63 48 100zM186 659h70v-96h-70v96zM451 563v96h70v-96h-70z" />
    <glyph glyph-name="yacute" unicode="&#xfd;" horiz-adv-x="562" 
d="M300 46l189 449h71l-233 -532c-44 -104 -67 -157 -214 -157c-42 0 -68 5 -102 12v62c31 -11 53 -18 99 -18c110 0 133 54 155 111l-265 522h80zM245 555l78 145h109l-144 -145h-43z" />
    <glyph glyph-name="thorn" unicode="&#xfe;" horiz-adv-x="708" 
d="M138 706v-290c58 68 149 92 239 92c191 0 283 -129 283 -260c0 -167 -143 -260 -297 -260c-114 0 -181 39 -225 88v-264h-64v894h64zM361 449c-76 0 -131 -25 -164 -54c-54 -49 -58 -112 -58 -150c0 -31 3 -85 40 -127c35 -41 103 -69 180 -69c120 0 227 66 227 200
c0 104 -72 201 -225 200z" />
    <glyph glyph-name="ydieresis" unicode="&#xff;" horiz-adv-x="562" 
d="M300 46l189 449h71l-233 -532c-44 -104 -67 -157 -214 -157c-42 0 -68 5 -102 12v62c31 -11 53 -18 99 -18c110 0 133 54 155 111l-265 522h80zM116 665h70v-96h-70v96zM381 569v96h70v-96h-70z" />
    <glyph glyph-name="quoteright" unicode="&#x2019;" horiz-adv-x="271" 
d="M177 706v-126c-1 -31 -3 -90 -79 -93v36c44 5 42 43 41 79h-47v104h85z" />
    <glyph glyph-name="quoteleft" unicode="&#x2018;" horiz-adv-x="271" 
d="M95 491v127c1 32 3 90 79 94v-37c-44 -5 -43 -43 -42 -79h47v-105h-84z" />
    <glyph glyph-name="fraction" unicode="&#x2044;" horiz-adv-x="125" 
d="M-165 0l409 706h48l-409 -706h-48z" />
    <glyph glyph-name="florin" unicode="&#x192;" horiz-adv-x="354" 
d="M131 478l11 96c5 45 17 133 154 133c34 0 59 -3 92 -11l-7 -57c-26 6 -42 10 -83 10c-76 0 -86 -45 -92 -90l-10 -81h167l-6 -52h-167l-58 -521c-11 -66 -33 -133 -154 -133c-34 0 -60 3 -92 11l7 57c24 -6 42 -10 83 -10c76 0 85 45 92 90l57 506h-98l6 52h98z" />
    <glyph glyph-name="currency" unicode="&#xa4;" 
d="M610 569l-74 -73c19 -26 54 -71 54 -156c0 -86 -36 -133 -55 -158l74 -74l-46 -46l-73 75c-26 -19 -72 -54 -156 -54c-86 0 -133 35 -158 54l-74 -73l-45 45l75 73c-20 26 -55 73 -55 157s35 132 54 157l-72 73l45 45l72 -73c25 19 74 55 158 55s131 -35 157 -54l73 73z
M529 340c1 116 -90 197 -196 197c-108 0 -196 -83 -196 -197c0 -113 88 -198 198 -198c108 0 193 83 194 198z" />
    <glyph glyph-name="quotedblleft" unicode="&#x201c;" horiz-adv-x="417" 
d="M182 598v-104h-85v119c0 22 1 52 19 75c19 25 42 26 60 26v-40c-39 -2 -38 -37 -38 -76h44zM321 598v-104h-85v119c1 22 2 52 19 75c20 25 42 26 60 26v-40c-38 -2 -38 -37 -38 -76h44z" />
    <glyph glyph-name="guilsinglleft" unicode="&#x2039;" horiz-adv-x="250" 
d="M23 340l202 173v-57l-137 -144l137 -145v-57l-202 175v55z" />
    <glyph glyph-name="guilsinglright" unicode="&#x203a;" horiz-adv-x="250" 
d="M23 454v58l201 -173v-53l-201 -173v58l136 141z" />
    <glyph glyph-name="fi" unicode="&#xfb01;" horiz-adv-x="562" 
d="M108 495v95c0 23 0 45 10 67c29 66 102 66 129 66c34 0 61 -3 94 -11v-57c-26 6 -44 10 -85 10c-76 0 -82 -45 -82 -90v-80h167v-52h-167v-443h-66v443h-98v52h98zM426 582v96h65v-96h-65zM426 0v495h65v-495h-65z" />
    <glyph glyph-name="fl" unicode="&#xfb02;" horiz-adv-x="562" 
d="M108 495v96c0 22 1 46 10 67c29 66 102 66 128 66c34 0 61 -3 94 -11v-57c-26 6 -43 10 -86 10c-84 0 -80 -71 -80 -90v-81h166v-52h-166v-443h-66v443h-98v52h98zM425 0v707h67v-707h-67z" />
    <glyph glyph-name="endash" unicode="&#x2013;" horiz-adv-x="729" 
d="M51 369h627v-59h-627v59z" />
    <glyph glyph-name="dagger" unicode="&#x2020;" horiz-adv-x="542" 
d="M241 706h60v-210h205v-52h-205v-444h-60v444h-205v52h205v210z" />
    <glyph glyph-name="daggerdbl" unicode="&#x2021;" horiz-adv-x="542" 
d="M241 518v188h60v-188h207v-53h-207v-193h207v-53h-207v-220h-60v220h-205v53h205v192h-208v54h208z" />
    <glyph glyph-name="bullet" unicode="&#x2022;" horiz-adv-x="333" 
d="M286 353c0 -65 -47 -119 -117 -119c-71 0 -122 54 -122 119c0 60 48 119 121 119c68 0 118 -53 118 -119z" />
    <glyph glyph-name="quotesinglbase" unicode="&#x201a;" horiz-adv-x="271" 
d="M177 104v-126c-1 -32 -4 -90 -79 -93v36c44 5 43 43 41 79h-47v104h85z" />
    <glyph glyph-name="quotedblbase" unicode="&#x201e;" horiz-adv-x="417" 
d="M235 0v104h85v-118c-1 -23 -2 -52 -20 -75c-19 -26 -42 -26 -60 -27v40c39 2 39 37 38 76h-43zM95 0v104h85v-118c-1 -23 -2 -52 -19 -75c-19 -26 -42 -26 -60 -27v40c38 2 38 37 38 76h-44z" />
    <glyph glyph-name="quotedblright" unicode="&#x201d;" horiz-adv-x="417" 
d="M235 602v104h85v-118c-1 -23 -2 -52 -20 -75c-19 -26 -42 -26 -60 -26v39c39 2 39 37 38 76h-43zM95 602v104h85v-118c-1 -23 -2 -52 -19 -75c-19 -26 -42 -26 -60 -26v39c38 2 38 37 38 76h-44z" />
    <glyph glyph-name="ellipsis" unicode="&#x2026;" horiz-adv-x="1000" 
d="M128 0v99h77v-99h-77zM462 0v99h77v-99h-77zM796 0v99h77v-99h-77z" />
    <glyph glyph-name="perthousand" unicode="&#x2030;" horiz-adv-x="1563" 
d="M833 439c125 5 217 -95 217 -224c0 -120 -85 -221 -211 -221c-115 0 -207 92 -207 224c0 128 89 216 201 221zM834 394c-99 -3 -153 -77 -153 -177c0 -133 92 -179 158 -179c79 0 159 57 159 175c0 114 -67 185 -164 181zM1312 439c126 5 217 -95 217 -224
c0 -120 -84 -221 -211 -221c-115 0 -207 92 -207 224c0 127 89 216 201 221zM1313 394c-99 -3 -153 -77 -153 -177c0 -133 92 -179 158 -179c79 0 159 57 159 175c0 114 -67 185 -164 181zM313 0l399 688h53l-399 -688h-53zM231 692c126 5 217 -94 217 -223
c0 -121 -85 -222 -211 -222c-114 0 -207 91 -207 224c0 128 89 216 201 221zM233 648c-99 -3 -153 -78 -153 -178c0 -132 91 -179 158 -179c78 0 159 58 159 176c0 114 -68 184 -164 181z" />
    <glyph glyph-name="acute" unicode="&#xb4;" horiz-adv-x="375" 
d="M94 555l78 145h109l-144 -145h-43z" />
    <glyph glyph-name="circumflex" unicode="&#x2c6;" horiz-adv-x="375" 
d="M160 681h59l103 -132h-52l-81 85l-83 -85h-54z" />
    <glyph glyph-name="tilde" unicode="&#x2dc;" horiz-adv-x="375" 
d="M8 597l-28 18c26 31 63 74 128 74c29 0 53 -7 140 -31c15 -4 33 -9 49 -9c38 0 57 26 67 41l31 -12c-15 -23 -51 -82 -125 -82c-22 0 -44 5 -66 11c-34 10 -67 23 -102 29c-7 1 -14 2 -20 2c-40 0 -60 -24 -74 -41z" />
    <glyph glyph-name="breve" unicode="&#x2d8;" horiz-adv-x="375" 
d="M278 681h49c-4 -22 -8 -47 -27 -72c-24 -32 -64 -52 -114 -52c-120 0 -134 102 -138 124h51c8 -50 37 -78 88 -78c41 0 63 20 73 33c14 16 16 30 18 45z" />
    <glyph glyph-name="dotaccent" unicode="&#x2d9;" horiz-adv-x="375" 
d="M155 680h64v-94h-64v94z" />
    <glyph glyph-name="dieresis" unicode="&#xa8;" horiz-adv-x="375" 
d="M20 665h70v-96h-70v96zM285 569v96h70v-96h-70z" />
    <glyph glyph-name="ring" unicode="&#x2da;" horiz-adv-x="375" 
d="M179 720c71 4 122 -31 122 -85c0 -55 -56 -87 -114 -87c-53 0 -114 27 -114 85c0 56 54 84 106 87zM185 679c-34 -1 -60 -19 -60 -44c0 -15 10 -43 61 -43c45 0 62 22 62 43s-20 45 -63 44z" />
    <glyph glyph-name="cedilla" unicode="&#xb8;" horiz-adv-x="375" 
d="M145 20h44v-80c18 -1 41 -1 63 -14c24 -13 34 -34 34 -55c0 -14 -5 -77 -119 -77c-26 0 -52 4 -78 7v33c20 -2 41 -4 61 -4c15 0 72 0 72 35c0 39 -53 38 -77 38v117z" />
    <glyph glyph-name="hungarumlaut" unicode="&#x2dd;" horiz-adv-x="375" 
d="M26 555l78 145h109l-144 -145h-43zM161 555l78 145h109l-144 -145h-43z" />
    <glyph glyph-name="ogonek" unicode="&#x2db;" horiz-adv-x="375" 
d="M279 -128v-51c-23 -2 -45 -5 -67 -5c-16 0 -117 0 -117 83c0 36 23 75 91 104h49l1 -2c-74 -31 -80 -57 -80 -78c0 -18 10 -55 73 -55c16 0 30 2 50 4z" />
    <glyph glyph-name="caron" unicode="&#x2c7;" horiz-adv-x="375" 
d="M216 549h-61l-103 132h53l81 -85l83 85h54z" />
    <glyph glyph-name="emdash" unicode="&#x2014;" horiz-adv-x="812" 
d="M51 369h711v-59h-711v59z" />
    <glyph glyph-name="Lslash" unicode="&#x141;" horiz-adv-x="688" 
d="M153 706v-380l365 204v-60l-365 -204v-207h514v-59h-583v227l-83 -47v60l83 47v419h69z" />
    <glyph glyph-name="dotlessi" unicode="&#x131;" horiz-adv-x="208" 
d="M71 0v494h66v-494h-66z" />
    <glyph glyph-name="lslash" unicode="&#x142;" horiz-adv-x="208" 
d="M138 706v-261l70 54v-64l-70 -54v-381h-67v330l-71 -55v64l71 55v312h67z" />
    <glyph glyph-name="brokenbar" unicode="&#xa6;" horiz-adv-x="229" 
d="M145 -175h-60v350h60v-350zM145 675v-350h-60v350h60z" />
    <glyph glyph-name="mu" unicode="&#x3bc;" horiz-adv-x="708" 
d="M572 0v71c-30 -26 -96 -84 -244 -84c-88 0 -154 19 -192 64v-238h-66v681h66v-272c1 -38 2 -87 32 -121c22 -26 72 -53 160 -53c64 0 123 14 159 31c82 36 84 84 85 121v294h65v-494h-65z" />
    <glyph glyph-name="onequarter" unicode="&#xbc;" horiz-adv-x="1083" 
d="M298 0l400 688h53l-399 -688h-54zM130 564v40c80 0 108 20 128 85h32v-431h-47v331c-30 -18 -50 -26 -113 -25zM621 152l266 280h49v-277h92v-42h-92v-113h-47v113h-268v39zM889 155v222l-211 -222h211z" />
    <glyph glyph-name="threequarters" unicode="&#xbe;" horiz-adv-x="1083" 
d="M342 0l399 687h53l-398 -687h-54zM620 152l266 280h49v-277h92v-42h-92v-113h-47v113h-268v39zM888 155v222l-210 -222h210zM104 554l-45 15c16 43 44 123 187 123c34 0 71 -5 102 -20c55 -26 67 -74 67 -98c0 -43 -27 -69 -66 -85c13 -4 25 -8 40 -18
c27 -18 45 -47 45 -82c0 -75 -64 -139 -192 -139c-145 0 -183 89 -195 118l43 15c13 -29 41 -91 155 -91c84 0 140 37 140 96c0 25 -13 41 -22 49c-24 23 -61 24 -90 25h-79v41h59c27 0 56 1 81 15c12 7 34 24 34 56c0 60 -71 78 -121 78c-23 0 -62 -4 -92 -21
c-36 -20 -44 -48 -51 -77z" />
    <glyph glyph-name="onehalf" unicode="&#xbd;" horiz-adv-x="1083" 
d="M278 0l399 688h53l-399 -688h-53zM130 564v40c80 0 108 20 128 85h32v-431h-47v331c-30 -18 -50 -26 -113 -25zM703 269l-48 7c7 41 16 91 67 128c29 20 71 34 121 34c103 0 179 -59 179 -146c0 -120 -134 -182 -285 -251h290v-41h-370v46c81 37 211 96 264 145
c24 22 52 59 52 100c0 53 -41 105 -129 105c-51 0 -103 -19 -125 -60c-6 -10 -15 -32 -16 -67z" />
    <glyph glyph-name="minus" unicode="&#x2212;" 
d="M667 321v-59h-667v59h667z" />
    <glyph glyph-name="trademark" unicode="&#x2122;" horiz-adv-x="687" 
d="M619 707v-332h-46v217c1 10 2 57 2 68c-6 -22 -8 -29 -17 -58l-72 -227h-42l-72 227c-4 14 -5 19 -17 57c1 -19 2 -47 2 -67l2 -217h-46v332h67l86 -273l86 273h67zM179 665v-290h-47v290h-109v42h262v-42h-106z" />
    </font>
</defs>
</svg>
